<svg xmlns="http://www.w3.org/2000/svg" viewBox="0 0 64 64">
  <defs>
    <linearGradient id="bgGrad" x1="0%" y1="0%" x2="100%" y2="100%">
      <stop offset="0%" style="stop-color:#0d1b2a"/>
      <stop offset="100%" style="stop-color:#1a3a5c"/>
    </linearGradient>
    <linearGradient id="arcGrad" x1="0%" y1="0%" x2="100%" y2="0%">
      <stop offset="0%" style="stop-color:#f5a623"/>
      <stop offset="100%" style="stop-color:#1a73e8"/>
    </linearGradient>
  </defs>
  
  <!-- Background circle -->
  <circle cx="32" cy="32" r="30" fill="url(#bgGrad)"/>
  
  <!-- Arc design - signature element -->
  <path d="M12 40 Q32 10 52 40" stroke="url(#arcGrad)" stroke-width="4" fill="none" stroke-linecap="round"/>
  <path d="M16 48 Q32 58 48 48" stroke="#1a73e8" stroke-width="2.5" fill="none" stroke-linecap="round" opacity="0.7"/>
  
  <!-- Main star -->
  <path d="M32 18 L33.5 23 L38.5 24 L33.5 25 L32 30 L30.5 25 L25.5 24 L30.5 23 Z" fill="#f5a623"/>
  
  <!-- Small accent stars -->
  <path d="M18 28 L19 30 L21 30.5 L19 31 L18 33 L17 31 L15 30.5 L17 30 Z" fill="#1a73e8" opacity="0.8"/>
  <path d="M46 28 L47 30 L49 30.5 L47 31 L46 33 L45 31 L43 30.5 L45 30 Z" fill="#f5a623" opacity="0.8"/>
</svg>
